#!OML:ASF G:\JayActor3\Patient Classification 1\Patient 1\Session 5\male.ASF
:FULLY-SPECIFIED
:DEGREES
706
root 22.4685 16.4383 -4.85302 643.625 82.1375 643.944
lowerback -1.74523 0.0236275 8.08814
upperback 1.85028 -0.20591 0.387337
thorax 2.87842 0.0727334 -4.14233
lowerneck -9.18762 0.204084 1.98147
upperneck 14.7764 -0.197128 1.87481
head 5.98957 0.209958 0.256193
rclavicle 1.68967e-015 1.70955e-014
rhumerus -32.0284 -4.18846 -87.4951
rradius 27.1826
rwrist 2.48811
rhand -18.723 -9.2306
rfingers 7.12502
rthumb 7.57248 -39.075
lclavicle 1.68967e-015 1.70955e-014
lhumerus -31.1055 12.0185 80.3773
lradius 19.1578
lwrist 10.9865
lhand -17.3075 11.3694
lfingers 7.12502
lthumb 8.93862 41.16
rfemur 17.2939 1.22247 32.8221
rtibia 20.3611
rfoot -15.0775 -10.5518
rtoes -7.45232
lfemur -22.982 10.757 -16.6267
ltibia 20.243
lfoot -11.4694 3.4247
ltoes -14.7822
707
root 22.6083 16.4491 -4.87454 645.331 82.3541 645.702
lowerback -1.74728 0.0338917 7.8596
upperback 1.83995 -0.184298 0.268567
thorax 2.8707 0.0783956 -4.13712
lowerneck -9.20117 0.200608 1.97675
upperneck 14.7977 -0.20553 1.8988
head 5.99869 0.20794 0.263986
rclavicle 1.2598e-014 1.39149e-014
rhumerus -32.1472 -4.53691 -87.3907
rradius 26.9419
rwrist 2.53888
rhand -18.8457 -9.23918
rfingers 7.12502
rthumb 7.45404 -39.0879
lclavicle 1.2598e-014 1.39149e-014
lhumerus -31.2707 12.4637 80.0314
lradius 18.8023
lwrist 10.5517
lhand -17.2709 11.4349
lfingers 7.12502
lthumb 8.97398 41.224
rfemur 17.1667 1.1691 32.338
rtibia 21.4016
rfoot -14.4896 -10.5288
rtoes -7.62591
lfemur -22.4865 11.2059 -16.9332
ltibia 20.3626
lfoot -11.1155 2.85259
ltoes -14.3165
708
root 22.7479 16.4606 -4.897 647.079 82.5826 647.501
lowerback -1.74885 0.0428411 7.62351
upperback 1.82721 -0.163849 0.144869
thorax 2.85997 0.0832689 -4.13271
lowerneck -9.21754 0.196729 1.96738
upperneck 14.8272 -0.214572 1.92739
head 6.01089 0.205922 0.273985
rclavicle 3.18055e-015 -1.15295e-014
rhumerus -32.2902 -4.87961 -87.2785
rradius 26.7254
rwrist 2.60835
rhand -18.9439 -9.19263
rfingers 7.12502
rthumb 7.35933 -39.0446
lclavicle 3.18055e-015 -1.15295e-014
lhumerus -31.4377 12.8878 79.6904
lradius 18.4704
lwrist 10.1326
lhand -17.2086 11.5106
lfingers 7.12502
lthumb 9.03404 41.2971
rfemur 16.9269 1.05853 31.8056
rtibia 22.6064
rfoot -13.8348 -10.507
rtoes -7.69652
lfemur -21.9507 11.4817 -17.2252
ltibia 20.4414
lfoot -10.7967 2.45132
ltoes -13.8176
709
root 22.8871 16.4723 -4.92007 648.844 82.8011 649.313
lowerback -1.74926 0.0498212 7.39493
upperback 1.81003 -0.145878 0.0257507
thorax 2.84366 0.0868273 -4.1277
lowerneck -9.22844 0.195141 1.96175
upperneck 14.8579 -0.220056 1.951
head 6.02253 0.205492 0.282071
rclavicle 4.96962e-016 1.03368e-014
rhumerus -32.4531 -5.19211 -87.1638
rradius 26.5363
rwrist 2.67909
rhand -19.0064 -9.09416
rfingers 7.12502
rthumb 7.29896 -38.9483
lclavicle 4.96962e-016 1.03368e-014
lhumerus -31.6055 13.2955 79.359
lradius 18.1626
lwrist 9.73264
lhand -17.127 11.6047
lfingers 7.12502
lthumb 9.11284 41.3878
rfemur 16.5838 0.890862 31.2489
rtibia 23.9495
rfoot -13.0931 -10.4938
rtoes -7.6108
lfemur -21.3962 11.6187 -17.4872
ltibia 20.4913
lfoot -10.512 2.19434
ltoes -13.253
710
root 23.0257 16.484 -4.94349 650.647 83.0038 651.157
lowerback -1.7471 0.0560428 7.17196
upperback 1.78632 -0.128665 -0.0843584
thorax 2.81901 0.0897031 -4.11635
lowerneck -9.23484 0.195085 1.95122
upperneck 14.893 -0.222551 1.97494
head 6.03478 0.206374 0.291314
rclavicle -2.5345e-015 1.07344e-014
rhumerus -32.6409 -5.46011 -87.0497
rradius 26.3926
rwrist 2.73218
rhand -19.025 -8.97213
rfingers 7.12502
rthumb 7.28099 -38.8269
lclavicle -2.5345e-015 1.07344e-014
lhumerus -31.7767 13.6827 79.0446
lradius 17.8846
lwrist 9.36289
lhand -17.0185 11.6909
lfingers 7.12502
lthumb 9.21751 41.4695
rfemur 16.1462 0.667362 30.6722
rtibia 25.4091
rfoot -12.2494 -10.501
rtoes -7.445
lfemur -20.8457 11.7037 -17.733
ltibia 20.5295
lfoot -10.263 1.98578
ltoes -12.6262
711
root 23.1631 16.4954 -4.9671 652.463 83.1823 653.007
lowerback -1.74173 0.0610479 6.95928
upperback 1.75784 -0.113121 -0.180801
thorax 2.7874 0.0916261 -4.0965
lowerneck -9.24321 0.196707 1.93404
upperneck 14.9314 -0.221706 1.99793
head 6.04838 0.208495 0.301632
rclavicle 2.88238e-015 2.38542e-015
rhumerus -32.8422 -5.66891 -86.9412
rradius 26.299
rwrist 2.75169
rhand -19.0039 -8.85411
rfingers 7.12502
rthumb 7.30141 -38.7081
lclavicle 2.88238e-015 2.38542e-015
lhumerus -31.9489 14.0378 78.7575
lradius 17.6482
lwrist 9.04067
lhand -16.8707 11.8016
lfingers 7.12502
lthumb 9.36011 41.5738
rfemur 15.6236 0.384887 30.0848
rtibia 26.9682
rfoot -11.2819 -10.5373
rtoes -7.16591
lfemur -20.3205 11.8341 -17.9731
ltibia 20.5767
lfoot -10.043 1.72375
ltoes -11.9345
712
root 23.2994 16.5062 -4.99083 654.293 83.3325 654.868
lowerback -1.73355 0.0648771 6.75904
upperback 1.73085 -0.0995518 -0.263207
thorax 2.75557 0.0929022 -4.06901
lowerneck -9.25475 0.202767 1.92556
upperneck 14.9651 -0.214625 2.00984
head 6.06103 0.213131 0.307492
rclavicle 6.23687e-015 1.27222e-014
rhumerus -33.0461 -5.80204 -86.848
rradius 26.2619
rwrist 2.71055
rhand -18.9523 -8.75812
rfingers 7.12502
rthumb 7.35115 -38.6104
lclavicle 6.23687e-015 1.27222e-014
lhumerus -32.1118 14.3619 78.5014
lradius 17.4511
lwrist 8.77126
lhand -16.694 11.9143
lfingers 7.12502
lthumb 9.53055 41.6788
rfemur 15.0313 0.0548099 29.4936
rtibia 28.6159
rfoot -10.2027 -10.5977
rtoes -6.8428
lfemur -19.823 12.0786 -18.2142
ltibia 20.6444
lfoot -9.84632 1.34162
ltoes -11.2145
